<?xml version="1.0" encoding="UTF-8" standalone="no"?>
<!-- Created with Inkscape (http://www.inkscape.org/) -->

<svg
   width="793.70081"
   height="1122.5197"
   viewBox="0 0 126.99213 179.60315"
   version="1.1"
   id="svg1"
   inkscape:version="1.4 (86a8ad7, 2024-10-11)"
   sodipodi:docname="Forme6bis.svg"
   xmlns:inkscape="http://www.inkscape.org/namespaces/inkscape"
   xmlns:sodipodi="http://sodipodi.sourceforge.net/DTD/sodipodi-0.dtd"
   xmlns="http://www.w3.org/2000/svg"
   xmlns:svg="http://www.w3.org/2000/svg">
  <sodipodi:namedview
     id="namedview1"
     pagecolor="#ffffff"
     bordercolor="#999999"
     borderopacity="1"
     inkscape:showpageshadow="2"
     inkscape:pageopacity="0"
     inkscape:pagecheckerboard="0"
     inkscape:deskcolor="#d1d1d1"
     inkscape:document-units="mm"
     inkscape:zoom="0.17438447"
     inkscape:cx="590.64893"
     inkscape:cy="1929.6443"
     inkscape:window-width="1920"
     inkscape:window-height="1001"
     inkscape:window-x="-9"
     inkscape:window-y="-9"
     inkscape:window-maximized="1"
     inkscape:current-layer="layer1" />
  <defs
     id="defs1" />
  <g
     inkscape:label="Calque 1"
     inkscape:groupmode="layer"
     id="layer1">
    <path
       style="fill:#da1919;fill-opacity:1;stroke:#000000;stroke-width:0.627793;stroke-dasharray:none;stroke-opacity:1"
       d="m 106.78096,435.70351 c -0.51329,0 -0.34214,0.53364 0.46905,1.4574 1.04269,1.18758 1.08456,1.35041 0.46115,1.79691 -0.50769,0.36351 -2.4006,2.02336 -4.78723,4.19731 -0.6813,0.62051 -1.23771,1.22932 -1.23771,1.35213 0,0.12319 0.35217,0.60177 0.78441,1.06423 0.43225,0.46245 0.99575,1.08697 1.2515,1.38784 0.34573,0.40683 0.52765,0.51055 0.71147,0.40308 0.13593,-0.0794 0.94108,-0.78992 1.78956,-1.57848 0.84849,-0.78845 1.68928,-1.56058 1.86641,-1.71535 0.17715,-0.15493 0.82254,-0.7598 1.43479,-1.34423 0.61227,-0.58429 1.20868,-1.06223 1.32639,-1.06223 0.11773,0 0.85475,0.70293 1.63781,1.56258 0.78305,0.85956 1.69353,1.85569 2.02209,2.21381 0.69,0.75214 0.70066,0.79835 0.30351,1.1754 -0.16322,0.15493 -1.21691,1.15102 -2.34139,2.21389 -1.12448,1.06275 -2.39179,2.26502 -2.81834,2.67245 -0.42652,0.40743 -0.77653,0.85971 -0.77653,1.00467 0,0.35256 2.38111,2.84522 2.71783,2.84522 0.14569,0 1.58921,-1.33951 3.20858,-2.97619 1.61937,-1.6368 3.04797,-2.97861 3.1731,-2.98024 0.27562,-0.002 4.40686,4.02424 4.40686,4.29647 0,0.16854 -4.52248,5.04286 -5.47506,5.90103 -0.19778,0.17873 -0.35869,0.44117 -0.35869,0.58363 0,0.14322 0.59326,0.84559 1.31851,1.56058 1.2781,1.26 1.74597,1.49591 2.03393,1.0265 0.12471,-0.20291 2.06728,-2.33922 3.36034,-3.69503 0.48352,-0.50681 1.15699,-1.24341 1.49588,-1.63603 0.33891,-0.39243 0.69755,-0.71654 0.79821,-0.72073 0.2277,-0.008 0.77259,0.42617 2.48724,1.99343 0.73945,0.67577 1.51301,1.36196 1.71859,1.5249 0.50386,0.39931 0.46835,0.72973 -0.1478,1.41169 -0.28526,0.31553 -0.87602,1.00316 -1.31457,1.52876 -0.43857,0.52551 -0.87092,1.03384 -0.95982,1.12978 -0.0889,0.0967 -0.48224,0.55741 -0.87506,1.02455 -0.39279,0.4674 -0.98853,1.15046 -1.32245,1.51689 -0.33386,0.36692 -0.58707,0.74582 -0.56367,0.84195 0.0769,0.31629 2.90763,2.65295 3.15537,2.60481 0.13318,-0.0265 0.52866,-0.52113 0.9736,-1.02247 1.49353,-1.68331 1.24441,-1.56208 2.64884,-3.27985 0.18791,-0.22559 0.71569,-0.86686 1.17266,-1.42563 l 0.82975,-1.01658 0.42568,0.28039 c 1.17686,0.77288 4.34183,3.49805 4.34183,3.73867 0,0.15003 -0.29725,0.63493 -0.66024,1.07618 -2.02483,2.46128 -4.45315,5.73013 -4.44628,5.98426 0.007,0.27246 2.29872,2.15581 2.91097,2.39245 0.29942,0.11563 0.48499,-0.0839 1.93934,-2.10061 0.57464,-0.79699 1.46701,-2.02952 1.98466,-2.73797 0.51764,-0.70852 1.04258,-1.4508 1.16479,-1.65009 0.12215,-0.19953 0.34476,-0.36126 0.49665,-0.36126 0.271,0 4.95729,3.2777 5.0474,3.53027 0.0247,0.0707 -0.23051,0.48245 -0.56954,0.91527 -0.58006,0.74054 -3.60836,5.07377 -4.24722,6.07764 -0.34039,0.5349 -0.42478,0.43367 1.39735,1.7095 1.04651,0.73268 1.50992,0.96844 1.75801,0.89551 0.20702,-0.0623 0.95315,-1.04262 1.93539,-2.54745 0.87912,-1.34681 1.63498,-2.48525 1.6792,-2.5295 0.044,-0.0438 0.29247,-0.40739 0.55182,-0.80609 0.80012,-1.22978 0.88172,-1.30108 1.26528,-1.09804 0.18671,0.0994 1.13197,0.70229 2.09899,1.3403 0.96702,0.63782 1.95576,1.28139 2.19751,1.42956 0.4151,0.25431 0.62062,0.95702 0.31932,1.09196 -0.15729,0.0699 -2.5976,3.97456 -2.5976,4.1557 0,0.0763 -0.0542,0.16325 -0.12215,0.19235 -0.1684,0.0733 -1.63583,2.47214 -1.63583,2.67456 0,0.16627 3.17939,2.13038 3.44902,2.13038 0.0826,0 0.3394,-0.30872 0.57153,-0.68502 0.23209,-0.37599 0.75426,-1.21583 1.15886,-1.86639 0.40459,-0.65045 0.73515,-1.2436 0.73515,-1.31631 0,-0.0725 0.0542,-0.15493 0.12215,-0.18441 0.0677,-0.0302 0.55431,-0.79336 1.08003,-1.69767 0.52606,-0.90486 1.06241,-1.64869 1.19436,-1.65194 0.13187,-0.002 0.84152,0.35823 1.57669,0.80414 0.73517,0.44551 1.82812,1.06716 2.42811,1.37998 0.59996,0.31288 1.12184,0.65328 1.16085,0.75841 0.0798,0.215 -0.6224,1.57783 -2.75134,5.33695 -0.80023,1.41313 -1.45449,2.60931 -1.45449,2.65869 0,0.14511 3.25325,1.93692 3.51799,1.93782 1.2973,-1.58767 2.92179,-5.13695 4.32212,-7.62832 0.0721,-0.0786 0.6669,0.12243 1.34808,0.45682 1.13083,0.55552 1.68114,0.64168 1.68114,0.26451 0,-0.22445 -0.60971,-0.61549 -3.0371,-1.94782 -3.74263,-2.05457 -8.49549,-4.89265 -12.51896,-7.47546 -1.39073,-0.89263 -2.8695,-1.84089 -3.28543,-2.10653 -0.41594,-0.26566 -1.82635,-1.24426 -3.13566,-2.1741 -1.30933,-0.92997 -2.53748,-1.79906 -2.72967,-1.93193 -1.39042,-0.96105 -2.94028,-2.09943 -4.31816,-3.17291 -3.30394,-2.574 -4.29498,-3.36287 -4.92915,-3.9233 -0.35795,-0.31629 -1.19132,-1.00422 -1.85065,-1.52879 -0.65932,-0.52431 -1.23316,-0.99183 -1.27712,-1.03646 -0.044,-0.0438 -0.44145,-0.36692 -0.88097,-0.7148 -0.43953,-0.34802 -0.97851,-0.80031 -1.1983,-1.00463 -0.21979,-0.20443 -0.5784,-0.52238 -0.7982,-0.70686 -1.08365,-0.9107 -6.97803,-6.37772 -8.81767,-8.17826 -0.76156,-0.74543 -1.44398,-1.40103 -1.51756,-1.4574 -0.23734,-0.18176 -3.92412,-4.06494 -5.67019,-5.97237 -1.71024,-1.86828 -4.34282,-4.88245 -6.51175,-7.45759 -0.70826,-0.84086 -1.29742,-1.39978 -1.47816,-1.39978 z"
       id="path6126"
       sodipodi:nodetypes="sscssssssssssssssssscssssssscsssssssscsscccsssssssscssscsssssssscsscsscsccsssssssssscsssssccssssssss" />
  </g>
</svg>
