<?xml version="1.0" encoding="UTF-8" standalone="no"?>
<!-- Created with Inkscape (http://www.inkscape.org/) -->

<svg
   width="793.70081"
   height="1122.5197"
   viewBox="0 0 126.99213 179.60315"
   version="1.1"
   id="svg1"
   inkscape:version="1.4 (86a8ad7, 2024-10-11)"
   sodipodi:docname="Forme6.svg"
   xmlns:inkscape="http://www.inkscape.org/namespaces/inkscape"
   xmlns:sodipodi="http://sodipodi.sourceforge.net/DTD/sodipodi-0.dtd"
   xmlns="http://www.w3.org/2000/svg"
   xmlns:svg="http://www.w3.org/2000/svg">
  <sodipodi:namedview
     id="namedview1"
     pagecolor="#ffffff"
     bordercolor="#999999"
     borderopacity="1"
     inkscape:showpageshadow="2"
     inkscape:pageopacity="0"
     inkscape:pagecheckerboard="0"
     inkscape:deskcolor="#d1d1d1"
     inkscape:document-units="mm"
     inkscape:zoom="0.24661688"
     inkscape:cx="626.47779"
     inkscape:cy="1100.8979"
     inkscape:window-width="1920"
     inkscape:window-height="1001"
     inkscape:window-x="-9"
     inkscape:window-y="-9"
     inkscape:window-maximized="1"
     inkscape:current-layer="layer1" />
  <defs
     id="defs1" />
  <g
     inkscape:label="Calque 1"
     inkscape:groupmode="layer"
     id="layer1">
    <path
       style="fill:#da1919;fill-opacity:1;stroke:#000000;stroke-width:0.627773;stroke-dasharray:none;stroke-opacity:1"
       d="m 373.21344,103.61809 c -0.17545,0.0378 -0.28379,0.16514 -0.28379,0.36315 0,0.14812 -0.11106,0.42866 -0.24794,0.6255 -0.13342,0.31931 -0.12571,0.23542 -0.19782,0.47428 -0.1122,0.18365 -0.35437,0.5955 -0.65028,1.17139 -2.24067,4.36509 -2.35793,4.582 -2.67246,4.93187 -0.25179,0.28001 -2.6452,-0.88227 -2.52659,-1.22709 0.0447,-0.13301 -0.0709,-0.0744 -0.26029,0.12924 -0.18855,0.20368 -0.3104,0.45557 -0.26799,0.56179 0.0447,0.10581 0.96504,0.6585 2.05166,1.22694 1.94723,1.01911 5.38414,3.05593 7.56984,4.48715 0.61534,0.40304 1.51486,0.96602 1.9984,1.24882 2.37043,1.38686 8.81011,5.67551 12.06731,8.03711 1.23067,0.89233 2.99293,2.12358 3.91594,2.73605 1.50838,1.00063 4.19986,2.95461 5.03537,3.65717 0.66551,0.55926 1.71449,1.40511 4.16242,3.35531 1.38954,1.10701 2.67655,2.1577 2.85968,2.33493 0.18316,0.17761 0.61854,0.53803 0.96962,0.80213 0.75987,0.57177 3.32722,2.86404 5.1221,4.57439 0.70754,0.67418 2.21449,2.09611 3.34842,3.15883 4.78328,4.48289 9.41299,9.449 13.24192,14.20188 1.08865,1.35161 1.79257,2.09472 1.93139,2.04106 0.11991,-0.0438 0.19587,-0.20482 0.16773,-0.3537 h -0.008 c -0.027,-0.14927 -0.0574,-0.31932 -0.0636,-0.37751 -0.008,-0.0563 -0.32198,-0.49181 -0.69963,-0.96487 -0.3775,-0.47308 -0.66173,-0.96916 -0.63062,-1.10195 0.0308,-0.13301 0.31004,-0.43679 0.62106,-0.67512 0.79398,-0.60986 2.77916,-2.40529 4.27072,-3.86168 0.83607,-0.8163 1.23384,-1.3165 1.17265,-1.4771 -0.19627,-0.51554 -2.12083,-2.84321 -2.35119,-2.84321 -0.2194,0 -1.255,0.928 -3.83712,3.43875 -0.48528,0.47179 -1.04135,0.94459 -1.2377,1.0504 -0.19589,0.10618 -0.35629,0.28605 -0.35629,0.40115 0,0.11488 -0.18123,0.30609 -0.39979,0.42493 -0.22017,0.11865 -0.39979,0.27547 -0.39979,0.34992 0,0.34123 -0.45338,0.0499 -1.00116,-0.63934 -0.33162,-0.41676 -1.21344,-1.40598 -1.959,-2.19783 -1.19736,-1.27194 -1.647,-2.02121 -1.21405,-2.02121 0.0771,0 1.40855,-1.25002 2.95823,-2.77769 1.8494,-1.82308 2.81711,-2.89187 2.81633,-3.10915 0,-0.18251 -0.16272,-0.54302 -0.36092,-0.80409 -0.6338,-0.8355 -1.97607,-2.16613 -2.18557,-2.16613 -0.11105,0 -1.56437,1.37447 -3.22827,3.05365 -1.66382,1.67919 -3.11398,3.01873 -3.22418,2.97611 -0.11028,-0.0438 -1.16713,-1.00944 -2.34729,-2.14825 l -2.1442,-2.07078 0.96176,-1.02652 c 0.93827,-0.99994 1.81967,-1.94351 3.95937,-4.24489 0.57643,-0.61987 1.04809,-1.24156 1.0504,-1.37979 0.008,-0.25997 -2.12712,-2.41265 -2.69013,-2.71617 -0.35899,-0.19384 -0.24176,-0.2868 -1.70083,1.36207 -0.52731,0.59612 -1.24676,1.39204 -1.5983,1.76898 -0.35129,0.37675 -1.17006,1.27199 -1.81915,1.98743 -0.92219,1.01692 -1.23646,1.26835 -1.43859,1.15744 -0.26644,-0.14623 -0.54454,-0.38804 -2.55227,-2.22956 -0.64622,-0.59302 -1.27633,-1.1363 -1.39926,-1.20715 -0.28997,-0.16701 -0.28766,-0.82423 0.008,-1.06815 0.1257,-0.1043 0.93365,-1.07455 1.79539,-2.15422 0.86157,-1.0795 1.60351,-1.99876 1.64955,-2.04298 0.5745,-0.55178 1.59938,-1.97132 1.58847,-2.19998 -0.0115,-0.32234 -2.14478,-2.22436 -2.74925,-2.45589 -0.33623,-0.12885 -0.46614,-0.0189 -1.31457,1.08992 -1.30225,1.70273 -3.89636,4.85762 -4.36135,5.30518 -0.36748,0.3537 -0.40361,0.35673 -0.80806,0.10354 -0.23252,-0.14624 -0.53047,-0.38619 -0.66223,-0.53428 -0.13188,-0.14813 -0.70773,-0.62596 -1.27903,-1.06423 -0.57135,-0.43804 -1.1391,-0.89497 -1.26134,-1.01449 -0.12184,-0.11941 -0.39153,-0.3299 -0.59941,-0.46681 -0.65362,-0.43115 -0.47756,-0.89224 1.10957,-2.91054 0.81754,-1.0397 1.66139,-2.14417 1.87427,-2.45404 0.21285,-0.30985 0.63971,-0.84161 0.94992,-1.1814 1.02215,-1.11982 0.98509,-1.25014 -0.70163,-2.52742 -0.81415,-0.61674 -1.5806,-1.12113 -1.70477,-1.11985 -0.12455,10e-4 -0.72866,0.69194 -1.34408,1.5348 -2.55714,3.50277 -4.10196,5.38654 -4.41464,5.38654 -0.17236,0 -0.76078,-0.34424 -1.30857,-0.76449 -0.54778,-0.42054 -1.58739,-1.16278 -2.30974,-1.64982 -0.72253,-0.4874 -1.35622,-1.01235 -1.40719,-1.16751 -0.0975,-0.29663 0.66245,-1.43255 3.37201,-5.03307 0.79966,-1.06271 1.49489,-2.08923 1.54514,-2.2833 0.0779,-0.30118 -0.0987,-0.47618 -1.21005,-1.1912 -1.91183,-1.22985 -1.989,-1.27471 -2.21518,-1.27471 -0.1797,0 -0.82226,0.87597 -2.34526,3.19858 -0.21092,0.32233 -0.42851,0.62112 -0.48079,0.66511 -0.0509,0.0438 -0.56175,0.78266 -1.13317,1.64 -0.5713,0.85722 -1.15691,1.59054 -1.30078,1.63006 -0.15,0.0438 -1.10261,-0.50677 -2.23877,-1.28853 -1.08689,-0.74813 -2.13938,-1.42601 -2.33935,-1.50699 -0.19975,-0.0805 -0.40685,-0.25999 -0.45913,-0.39678 -0.0987,-0.25733 0.0115,-0.45429 2.66055,-4.74531 1.67878,-2.72211 1.78053,-2.92424 1.62201,-3.18262 -0.17467,-0.28493 -3.11829,-1.98408 -3.35432,-1.93582 -0.11992,0.0264 -0.38641,0.33481 -0.59305,0.68891 -0.20667,0.35446 -0.6677,1.15115 -1.02477,1.77106 -0.35706,0.61988 -0.82876,1.41679 -1.04651,1.77097 -0.21824,0.35446 -0.44957,0.75452 -0.51651,0.8875 -0.0663,0.13301 -0.42593,0.7615 -0.80011,1.39781 l -0.68197,1.15754 -1.95695,-1.28265 c -1.07636,-0.70498 -2.18954,-1.40171 -2.47532,-1.5487 -0.28572,-0.147 -0.52029,-0.33632 -0.52029,-0.41866 0,-0.13264 0.21479,-1.14203 2.02008,-4.12374 0.15694,-0.25885 0.21863,-0.38989 0.43229,-0.98499 0.31311,-0.50178 1.21988,-2.09822 1.2967,-2.71012 0.0308,-0.27131 -0.0193,-0.4505 -0.12995,-0.4505 -0.2009,0 -1.5552,-0.84487 -1.71857,-1.07213 -0.0509,-0.0744 -0.14422,-0.12885 -0.2009,-0.11941 -0.0575,0.008 -0.31427,-0.0926 -0.57134,-0.22635 -0.26607,-0.13868 -0.50818,-0.18441 -0.68383,-0.14511 z"
       id="path204"
       sodipodi:nodetypes="cscccsssscsssssssssssscccccssssscscsssssccssscccscssssssscsssscssssssssssssssssscssssscssccccssscccccssccsscccc" />
  </g>
</svg>
