<?xml version="1.0" encoding="UTF-8" standalone="no"?>
<!-- Created with Inkscape (http://www.inkscape.org/) -->

<svg
   width="793.70081"
   height="1122.5197"
   viewBox="0 0 126.99213 179.60315"
   version="1.1"
   id="svg1"
   inkscape:version="1.4 (86a8ad7, 2024-10-11)"
   sodipodi:docname="Forme3bis.svg"
   xmlns:inkscape="http://www.inkscape.org/namespaces/inkscape"
   xmlns:sodipodi="http://sodipodi.sourceforge.net/DTD/sodipodi-0.dtd"
   xmlns="http://www.w3.org/2000/svg"
   xmlns:svg="http://www.w3.org/2000/svg">
  <sodipodi:namedview
     id="namedview1"
     pagecolor="#ffffff"
     bordercolor="#999999"
     borderopacity="1"
     inkscape:showpageshadow="2"
     inkscape:pageopacity="0"
     inkscape:pagecheckerboard="0"
     inkscape:deskcolor="#d1d1d1"
     inkscape:document-units="mm"
     inkscape:zoom="0.17438447"
     inkscape:cx="-561.97664"
     inkscape:cy="960.52129"
     inkscape:window-width="1920"
     inkscape:window-height="1001"
     inkscape:window-x="-9"
     inkscape:window-y="-9"
     inkscape:window-maximized="1"
     inkscape:current-layer="layer1" />
  <defs
     id="defs1" />
  <g
     inkscape:label="Calque 1"
     inkscape:groupmode="layer"
     id="layer1">
    <path
       style="fill:#da1919;fill-opacity:1;stroke:#000000;stroke-width:0.627754;stroke-dasharray:none;stroke-opacity:1"
       d="m 411.6847,158.90778 c -0.10912,0 -1.04859,0.51241 -2.08901,1.13961 -1.0405,0.62737 -2.29118,1.35887 -2.77886,1.62406 -0.48777,0.2649 -1.13879,0.62974 -1.44642,0.81204 -0.30731,0.18252 -1.04435,0.62052 -1.6377,0.9729 -0.59306,0.3518 -1.07803,0.7061 -1.07803,0.78614 0,0.0801 1.10417,1.28513 2.45364,2.6783 2.28209,2.35631 4.42494,4.71134 6.19607,6.80983 0.40615,0.48115 1.06811,1.26695 1.47206,1.74517 0.40364,0.47805 0.41896,0.54804 0.56942,0.7405 0.13843,0.14509 0.12261,0.2048 0.17159,0.24863 0.11914,0.0624 0.18701,0.0624 0.24215,0.15078 0.75608,1.02531 0.76322,0.8451 1.71831,1.97163 2.267,2.70442 3.78873,3.35373 6.74588,8.70604 0.39343,0.7123 0.24024,0.55862 0.7569,1.34412 0.24948,0.28946 0.12493,0.16362 0.38251,0.39115 0.18239,0.16059 0.85699,1.26854 1.02674,1.47924 0.35899,0.44617 0.29266,0.31856 1.44649,2.16908 0.64048,1.04182 1.46585,2.36667 1.83279,2.94225 0.9065,1.42223 2.9541,4.94057 2.9541,5.07468 0,0.0563 0.13535,0.30118 0.29961,0.53613 0.43808,0.62574 2.39495,4.18031 3.42512,6.22419 1.13971,2.26102 4.42744,9.22604 4.42826,9.3809 3.7e-4,0.0642 0.14729,0.3605 0.32698,0.6572 l 0.32699,0.53989 0.30347,-0.3537 c 0.16773,-0.19386 0.49032,-0.75316 0.49032,-1.26469 0,-2.31668 -0.0308,-4.83476 -2.08505,-10.65159 -0.45523,-1.29175 -2.16236,-5.10404 -2.50477,-5.79734 -0.88001,-1.78129 -0.75658,-1.76254 -1.60427,-2.89857 -0.71333,-1.29077 -4.07331,-6.99318 -4.36325,-7.4054 -0.6306,-0.89702 -1.58087,-2.60327 -1.77958,-2.86899 -0.32389,-0.43302 -0.22557,-0.35068 -0.54966,-0.78852 -0.44699,-0.49491 -2.92708,-4.1469 -2.86149,-4.21296 0.0308,-0.0302 -0.0968,-0.19045 -0.2919,-0.3469 -0.19511,-0.15682 -0.8568,-0.98804 -1.47221,-1.8484 -0.6153,-0.86032 -1.48066,-2.00753 -1.92345,-2.55119 -2.07239,-2.54449 -4.39089,-5.69992 -4.39089,-5.97599 0,-0.0499 -0.1766,-0.36239 -0.39215,-0.69285 -0.52861,-0.80904 -1.47472,-3.33479 -1.56868,-4.18722 -0.0752,-0.68181 0.17196,-2.37596 0.49093,-3.36718 0.16119,-0.50241 0.13149,-0.54802 -1.44059,-2.21375 -0.88263,-0.9356 -1.69444,-1.69952 -1.80329,-1.69952 z"
       id="path752"
       sodipodi:nodetypes="cscccssssccccscsscssssscccscsssscssssssssscc" />
  </g>
</svg>
