<?xml version="1.0" encoding="UTF-8" standalone="no"?>
<!-- Created with Inkscape (http://www.inkscape.org/) -->

<svg
   width="793.70081"
   height="1122.5197"
   viewBox="0 0 126.99213 179.60315"
   version="1.1"
   id="svg1"
   inkscape:version="1.4 (86a8ad7, 2024-10-11)"
   sodipodi:docname="Forme5.svg"
   xmlns:inkscape="http://www.inkscape.org/namespaces/inkscape"
   xmlns:sodipodi="http://sodipodi.sourceforge.net/DTD/sodipodi-0.dtd"
   xmlns="http://www.w3.org/2000/svg"
   xmlns:svg="http://www.w3.org/2000/svg">
  <sodipodi:namedview
     id="namedview1"
     pagecolor="#ffffff"
     bordercolor="#999999"
     borderopacity="1"
     inkscape:showpageshadow="2"
     inkscape:pageopacity="0"
     inkscape:pagecheckerboard="0"
     inkscape:deskcolor="#d1d1d1"
     inkscape:document-units="mm"
     inkscape:zoom="0.12330844"
     inkscape:cx="932.62066"
     inkscape:cy="1853.0767"
     inkscape:window-width="1920"
     inkscape:window-height="1001"
     inkscape:window-x="-9"
     inkscape:window-y="-9"
     inkscape:window-maximized="1"
     inkscape:current-layer="layer1" />
  <defs
     id="defs1" />
  <g
     inkscape:label="Calque 1"
     inkscape:groupmode="layer"
     id="layer1">
    <path
       style="fill:#da1919;fill-opacity:1;stroke:#000000;stroke-width:0.627808;stroke-dasharray:none"
       d="m 355.74675,492.54431 c -0.11066,0 -1.73793,0.69606 -3.61656,1.54474 -7.26815,3.28345 -12.71237,5.48853 -16.28371,6.59607 -0.48354,0.15002 -1.85037,0.58613 -3.03725,0.97096 -1.18671,0.38491 -3.15069,0.98952 -4.36354,1.34416 -1.21275,0.35483 -2.26004,0.68057 -2.32767,0.72266 -0.3108,0.19385 -9.6305,2.60511 -12.17036,3.14911 -10.24453,2.1942 -23.95673,4.07893 -33.48579,4.60452 -2.75795,0.15191 -2.93857,0.17496 -3.20275,0.39488 -0.20976,0.17572 -0.20436,0.2256 0.0432,0.41496 0.15463,0.11865 0.43029,0.21803 0.61098,0.22067 0.58295,0.008 1.21167,0.5799 8.45914,7.68202 0.64473,0.63178 0.72994,0.66734 1.45452,0.60556 0.4237,-0.0302 0.80748,-0.26792 0.95987,-0.26792 0.32275,0 0.33663,-1.66204 0.45925,-5.67275 0.0486,-1.59024 0.14306,-2.94566 0.20899,-3.01205 0.0659,-0.0661 0.69458,-0.16438 1.39738,-0.21879 l 1.27706,-0.0994 1.9335,1.66191 c 2.21754,1.90615 5.22336,4.50347 5.83781,5.04324 0.93026,0.81713 1.21679,0.92826 2.16213,0.83795 0.49549,-0.0499 0.96515,-0.18365 1.04258,-0.30192 0.0775,-0.1179 0.098,-0.90197 0.0451,-1.74329 -0.23753,-3.83855 -0.31041,-6.66525 -0.17738,-6.882 0.13149,-0.21426 2.44647,-0.57864 2.70016,-0.42489 0.41556,0.25167 4.87419,3.3845 5.8122,4.08418 3.63272,2.71005 3.76271,2.78997 4.42073,2.76397 0.34858,-0.0113 0.82418,-0.11563 1.05646,-0.22824 0.3829,-0.18479 0.41749,-0.2785 0.38021,-1.00668 -0.0386,-0.71548 -0.43442,-4.3477 -0.59125,-5.39277 -0.0347,-0.22107 -0.10873,-0.8499 -0.16735,-1.39778 l -0.10796,-0.99674 1.01308,-0.31364 c 1.60764,-0.49866 1.30745,-0.62053 6.60849,2.67645 1.14287,0.71091 2.71022,1.69711 3.48257,2.19209 1.52365,0.9766 2.12932,1.10685 3.00763,0.64935 0.45782,-0.23882 0.47529,-0.28567 0.37634,-1.00682 -0.0566,-0.41617 -0.19627,-1.18995 -0.31117,-1.7214 -0.11453,-0.53119 -0.25913,-1.43765 -0.31928,-2.0134 -0.0598,-0.57547 -0.24486,-1.63621 -0.41387,-2.3568 -0.1685,-0.72058 -0.3077,-1.41807 -0.3077,-1.54874 0,-0.26679 1.55411,-0.92521 2.18384,-0.92521 0.21902,0 1.1298,0.38866 2.02408,0.86365 0.8942,0.47492 2.48881,1.31982 3.54373,1.87625 1.05496,0.55682 2.56522,1.37783 3.35648,1.8268 1.57586,0.89433 2.17855,0.99451 3.10025,0.51425 0.66311,-0.34538 0.66743,-0.30381 -0.52827,-4.43761 -0.49951,-1.72706 -0.95008,-3.44181 -1.00121,-3.81232 -0.091,-0.65864 -0.0779,-0.67984 0.52815,-0.94697 1.5341,-0.67656 1.66197,-0.69602 2.52672,-0.38933 0.75716,0.26791 1.48999,0.58553 3.57329,1.54273 1.94384,0.89335 6.57631,2.80166 6.79957,2.80166 0.13264,0 0.57072,-0.14171 0.97367,-0.31554 0.81196,-0.35068 0.86093,-0.51429 0.47306,-1.53684 -0.13419,-0.35445 -0.44999,-1.29568 -0.70168,-2.09278 -0.25179,-0.7971 -0.71343,-2.09486 -1.02685,-2.88501 -0.7705,-1.94242 -0.75457,-2.20841 0.15965,-2.74798 0.59513,-0.35181 0.69419,-0.47178 0.53999,-0.65922 -0.1045,-0.12621 -0.27956,-0.22975 -0.39023,-0.22975 z"
       id="path6663" />
  </g>
</svg>
