<?xml version="1.0" encoding="UTF-8" standalone="no"?>
<!-- Created with Inkscape (http://www.inkscape.org/) -->

<svg
   width="793.70081"
   height="1122.5197"
   viewBox="0 0 126.99213 179.60315"
   version="1.1"
   id="svg1"
   inkscape:version="1.4 (86a8ad7, 2024-10-11)"
   sodipodi:docname="Forme5bis.svg"
   xmlns:inkscape="http://www.inkscape.org/namespaces/inkscape"
   xmlns:sodipodi="http://sodipodi.sourceforge.net/DTD/sodipodi-0.dtd"
   xmlns="http://www.w3.org/2000/svg"
   xmlns:svg="http://www.w3.org/2000/svg">
  <sodipodi:namedview
     id="namedview1"
     pagecolor="#ffffff"
     bordercolor="#999999"
     borderopacity="1"
     inkscape:showpageshadow="2"
     inkscape:pageopacity="0"
     inkscape:pagecheckerboard="0"
     inkscape:deskcolor="#d1d1d1"
     inkscape:document-units="mm"
     inkscape:zoom="0.17438447"
     inkscape:cx="435.81862"
     inkscape:cy="461.62368"
     inkscape:window-width="1920"
     inkscape:window-height="1001"
     inkscape:window-x="-9"
     inkscape:window-y="-9"
     inkscape:window-maximized="1"
     inkscape:current-layer="layer1" />
  <defs
     id="defs1" />
  <g
     inkscape:label="Calque 1"
     inkscape:groupmode="layer"
     id="layer1">
    <path
       style="fill:#da1919;fill-opacity:1;stroke:#000000;stroke-width:0.627743;stroke-dasharray:none"
       d="m 249.83453,77.442698 c -0.18547,-0.02645 -0.34126,0.03779 -0.61299,0.07142 -0.50112,0.06235 -0.95863,0.154176 -1.01682,0.21048 -0.0583,0.05631 -0.15347,1.841338 -0.21093,3.966653 -0.0987,3.653389 -0.16966,4.731181 -0.32736,4.889966 -0.0386,0.03779 -0.67981,0.09183 -1.4268,0.119411 l -1.35781,0.04988 -4.58792,-3.865532 -4.58585,-3.863453 -0.80995,0.103161 c -0.44642,0.0563 -0.87597,0.142461 -0.95383,0.190452 -0.13388,0.08313 -0.0666,2.990738 0.16357,7.069772 0.11865,2.103247 0.15787,2.048567 -1.62388,2.225643 l -1.12132,0.111096 -1.75395,-1.34809 c -0.96547,-0.740987 -2.07964,-1.57138 -2.47525,-1.846327 -0.39553,-0.275097 -0.87203,-0.635445 -1.05826,-0.800162 -0.18632,-0.165135 -0.85527,-0.661292 -1.48791,-1.103791 -0.63253,-0.442422 -1.47378,-1.046729 -1.86824,-1.342195 -0.65261,-0.488637 -0.78617,-0.526123 -1.47605,-0.430519 -1.1746,0.163244 -1.19402,0.190452 -1.0839,1.633919 0.053,0.696812 0.12674,1.411233 0.16156,1.588347 0.0351,0.177603 0.1114,0.814786 0.17148,1.417468 0.0606,0.60238 0.13969,1.248518 0.17532,1.435418 0.11992,0.627207 0.26846,2.134838 0.25026,2.541324 -0.0247,0.568635 -0.37434,0.766721 -1.58445,0.897316 -0.78407,0.08503 -1.15159,0.0563 -1.42286,-0.10883 -0.20105,-0.123189 -1.21131,-0.741553 -2.24465,-1.373898 -1.03333,-0.632384 -2.63415,-1.604143 -3.55715,-2.160043 -0.92299,-0.556127 -2.16278,-1.325946 -2.75704,-1.709419 -1.18223,-0.763056 -1.54931,-0.827106 -2.51267,-0.438682 -0.68223,0.275097 -0.67631,0.256203 -0.39609,1.512845 0.0491,0.221061 0.12215,0.564894 0.16164,0.764341 0.0395,0.19952 0.10245,0.525556 0.14193,0.724699 0.0395,0.199521 0.11268,0.543015 0.16164,0.764301 0.0491,0.221061 0.12568,0.683361 0.16948,1.024398 0.044,0.341226 0.11071,0.671002 0.14977,0.734676 0.0389,0.06311 0.11197,0.328756 0.16156,0.587415 0.0497,0.259227 0.14009,0.726401 0.20098,1.036339 0.0612,0.309862 0.11433,0.886659 0.1183,1.28264 l 0.006,0.720694 -1.25535,0.313642 -1.25535,0.313641 -1.21988,-0.631326 c -0.67057,-0.346894 -2.51564,-1.311321 -4.09906,-2.142281 -5.25559,-2.757661 -5.19912,-2.733628 -5.66583,-2.598763 -0.71902,0.208212 -1.46318,0.651883 -1.36374,0.813956 0.0877,0.142461 0.14021,0.341226 0.32321,1.219044 0.0389,0.186295 0.17495,0.639412 0.30343,1.00656 0.12856,0.366923 0.19697,0.667036 0.15177,0.667036 -0.0453,0 -0.0247,0.08994 0.0434,0.200654 0.0686,0.110719 0.13979,0.274342 0.15969,0.363144 0.0197,0.08805 0.14096,0.536779 0.26799,0.996698 0.12709,0.459276 0.19121,0.875512 0.14193,0.925128 -0.0491,0.04988 -0.001,0.09107 0.10642,0.09107 0.10778,0 0.15305,0.06613 0.10246,0.148885 -0.0504,0.08238 -0.0178,0.197632 0.0729,0.254314 0.0907,0.0563 0.12193,0.171936 0.069,0.258093 -0.0529,0.08616 -0.0212,0.24789 0.069,0.357475 0.23032,0.28001 0.42881,1.274705 0.36458,1.826525 -0.0197,0.170424 -1.74801,0.84872 -2.47916,0.972774 -0.16488,0.0264 -0.7775,-0.17571 -1.3598,-0.450543 -1.69989,-0.803337 -1.96201,-0.915907 -3.05658,-1.326324 -0.57133,-0.214258 -1.86439,-0.76827 -2.87529,-1.230833 -2.24379,-1.026779 -4.15363,-1.748228 -4.47549,-1.689543 -0.13188,0.02645 -0.5054,0.159466 -0.82968,0.300038 -0.6027,0.260737 -0.75654,0.711058 -0.40204,1.183333 0.0831,0.110719 0.0971,0.200655 0.032,0.200655 -0.0655,0 -0.0389,0.09825 0.0593,0.216148 0.0979,0.118654 0.1308,0.26376 0.0729,0.321954 -0.0581,0.0563 -0.009,0.10694 0.1084,0.10694 0.11718,0 0.16622,0.04384 0.10839,0.105806 -0.0581,0.0563 -0.0247,0.202922 0.0729,0.321955 0.0979,0.118655 0.12459,0.216148 0.0593,0.216148 -0.0655,0 -0.0305,0.109207 0.0788,0.242599 0.10942,0.133014 0.16056,0.2426 0.11236,0.2426 -0.0485,0 0.0794,0.429311 0.28373,0.954942 0.2044,0.525515 0.33161,0.996055 0.28182,1.046235 -0.0498,0.0499 -0.008,0.0911 0.0946,0.0911 0.10261,0 0.17579,0.0563 0.16165,0.12131 -0.0147,0.0661 0.0645,0.3382 0.17532,0.60362 0.11082,0.26603 0.22573,0.59176 0.25423,0.72463 0.0286,0.13301 0.0656,0.27736 0.0828,0.32195 0.0173,0.0438 0.0223,0.13452 0.0119,0.20065 -0.0102,0.0661 0.0459,0.12131 0.12416,0.12131 0.21636,0 0.43367,0.87396 0.35665,1.43341 -0.0185,0.13302 -0.9412,0.56115 -1.14696,0.53179 -0.0485,-0.008 -0.16538,0.11374 -0.26017,0.26603 -0.27092,0.43679 0.60787,-0.74098 1.43864,-0.0438 0.53166,0.44616 1.00616,0.3741 1.61795,0.0302 -0.003,-0.008 -0.004,-0.003 -0.008,-0.0113 -0.0632,-0.11299 -0.0561,-0.147 0.0158,-0.0812 0.0235,0.0264 0.0704,0.0189 0.11236,0.0189 0.93855,-0.55302 2.2111,-1.66808 4.5228,-2.59684 4.90819,-1.97197 4.6196,-1.85531 4.71594,-1.87814 0.26736,-0.0631 2.50499,-0.961365 2.63682,-1.058177 0.088,-0.06424 0.77026,-0.310997 1.51745,-0.548004 0.74719,-0.23693 1.4664,-0.475525 1.59825,-0.529902 0.13188,-0.05631 0.27532,-0.10883 0.31928,-0.121299 0.41651,-0.113743 0.96418,-0.311752 1.36373,-0.492417 0.26583,-0.120544 0.66957,-0.253558 0.89865,-0.296258 0.22909,-0.04384 0.64207,-0.192342 0.91639,-0.335559 0.27431,-0.143216 0.49858,-0.225594 0.49858,-0.184406 0,0.04384 0.91695,-0.247889 2.03772,-0.643229 1.12078,-0.394922 2.53978,-0.857147 3.15513,-1.026437 0.61532,-0.168913 2.37748,-0.677049 3.91582,-1.127709 1.5383,-0.450548 2.97674,-0.85129 3.1965,-0.891346 0.54002,-0.09938 1.41765,-0.306083 4.15625,-0.984795 2.50205,-0.619914 2.69263,-0.666695 3.23592,-0.784179 0.19778,-0.04384 0.55584,-0.120543 0.79616,-0.173069 0.24027,-0.04988 0.47256,-0.09447 0.5163,-0.09296 0.0434,0.0012 0.31561,-0.06802 0.60302,-0.153042 1.07372,-0.317419 11.10142,-2.329635 13.14864,-2.638627 4.10597,-0.619234 5.02905,-0.726174 8.3499,-0.966809 2.31143,-0.167401 3.49055,-0.257337 4.1957,-0.323843 0.93877,-0.08767 2.62199,-0.215015 4.31588,-0.325733 0.74713,-0.04988 1.60984,-0.121301 1.91746,-0.158711 0.30733,-0.03779 1.2011,-0.112609 1.98452,-0.168913 1.583,-0.113741 2.11378,-0.314396 1.76574,-0.665107 -0.11606,-0.117522 -0.35552,-0.212369 -0.53205,-0.212369 -0.69177,0 -1.22127,-0.394924 -3.41718,-2.545141 -4.9727,-4.869712 -5.79102,-5.736987 -6.34767,-5.811165 z"
       id="path6" />
  </g>
</svg>
