<?xml version="1.0" encoding="UTF-8" standalone="no"?>
<!-- Created with Inkscape (http://www.inkscape.org/) -->

<svg
   width="793.70081"
   height="1122.5197"
   viewBox="0 0 126.99213 179.60315"
   version="1.1"
   id="svg1"
   inkscape:version="1.4 (86a8ad7, 2024-10-11)"
   sodipodi:docname="Forme2.svg"
   xmlns:inkscape="http://www.inkscape.org/namespaces/inkscape"
   xmlns:sodipodi="http://sodipodi.sourceforge.net/DTD/sodipodi-0.dtd"
   xmlns="http://www.w3.org/2000/svg"
   xmlns:svg="http://www.w3.org/2000/svg">
  <sodipodi:namedview
     id="namedview1"
     pagecolor="#ffffff"
     bordercolor="#999999"
     borderopacity="1"
     inkscape:showpageshadow="2"
     inkscape:pageopacity="0"
     inkscape:pagecheckerboard="0"
     inkscape:deskcolor="#d1d1d1"
     inkscape:document-units="mm"
     inkscape:zoom="0.061654221"
     inkscape:cx="-1265.1202"
     inkscape:cy="3203.3492"
     inkscape:window-width="1920"
     inkscape:window-height="1001"
     inkscape:window-x="-9"
     inkscape:window-y="-9"
     inkscape:window-maximized="1"
     inkscape:current-layer="layer1" />
  <defs
     id="defs1" />
  <g
     inkscape:label="Calque 1"
     inkscape:groupmode="layer"
     id="layer1">
    <path
       style="fill:#da1919;fill-opacity:1;stroke:#000000;stroke-width:0.627784;stroke-dasharray:none"
       d="m 395.66716,405.4331 c -0.1192,0 -0.5911,0.4081 -1.0485,0.9073 -0.4571,0.4993 -1.3337,1.4336 -1.9491,2.0749 -0.6153,0.6412 -1.767,1.8743 -2.5582,2.7399 -1.7225,1.8848 -4.4745,4.6555 -6.417,6.4589 -1.9521,1.8121 -3.108,2.8711 -3.5752,3.2779 -0.401,0.3492 -3.6542,3.4016 -4.8876,4.5864 -0.3687,0.3545 -1.0859,1.0067 -1.5925,1.4495 -0.5069,0.443 -1.0046,0.8904 -1.1076,0.9927 -0.1034,0.1024 -0.8283,0.6663 -1.6122,1.2548 -0.7838,0.5887 -2.0007,1.506 -2.704,2.0392 -2.5832,1.9584 -5.0819,3.688 -7.7829,5.3886 -1.5221,0.9582 -3.5928,2.2822 -4.6039,2.9424 -1.9208,1.2546 -5.5939,3.5448 -6.555,4.0881 -0.3077,0.1742 -0.6314,0.3722 -0.7193,0.4406 -1.1817,0.9134 -10.2884,5.7577 -12.8657,6.8439 -0.5715,0.2407 -1.3276,0.5692 -1.6792,0.7287 -0.3513,0.1594 -1.1058,0.4843 -1.6771,0.7227 -0.5714,0.2381 -1.6513,0.6873 -2.3985,0.9987 -1.3544,0.5643 -3.8604,1.5016 -8.7113,3.2602 -7.7359,2.8044 -21.6539,6.0073 -31.8744,7.3343 -1.7079,0.2219 -3.2042,0.4031 -3.3248,0.4031 -0.2653,0 -0.2448,1.5649 0.023,1.7313 0.092,0.056 0.9585,0.1307 1.9275,0.1613 2.0566,0.065 2.5691,0.1856 7.0378,1.6599 6.3653,2.1 7.9453,2.4056 12.0675,2.329 1.9789,-0.038 3.3194,-0.1512 4.5882,-0.3912 2.2243,-0.4206 3.9858,-0.9742 5.7765,-1.8168 2.9819,-1.4031 3.8456,-1.7994 5.6169,-2.5771 1.0109,-0.4437 2.7733,-1.2623 3.9161,-1.8187 2.7344,-1.3313 3.501,-1.6025 6.6338,-2.3469 1.4505,-0.3442 3.3195,-0.875 4.1546,-1.1772 1.8029,-0.6529 5.9562,-2.4526 7.7533,-3.3615 1.2099,-0.6118 8.036,-4.8388 9.4462,-5.8493 0.361,-0.2581 1.6448,-1.1581 2.8519,-1.9994 3.5593,-2.4807 5.0294,-3.6234 6.6989,-5.198 0.8668,-0.8175 1.7603,-1.6296 1.9847,-1.8068 0.2236,-0.1776 0.8812,-0.722 1.4604,-1.2091 0.579,-0.4867 1.1609,-0.9726 1.2928,-1.0801 0.1319,-0.1073 0.8143,-0.6703 1.5175,-1.2509 5.3175,-4.3898 6.1197,-4.9778 8.0332,-5.8988 1.8706,-0.9004 6.2369,-2.1647 9.0699,-2.6268 0.9075,-0.1482 3.3284,-1.0504 3.9811,-1.4831 1.0804,-0.7162 2.6275,-2.3871 2.9858,-3.2265 0.1824,-0.4267 0.4406,-1.2665 0.5752,-1.8643 0.2695,-1.2006 0.2321,-1.4584 -0.6919,-4.789 -0.3571,-1.2882 -0.4266,-1.8744 -0.4393,-3.7049 -0.019,-2.8498 0.3728,-4.1201 2.0634,-6.6792 0.482,-0.73 0.875,-1.4038 0.875,-1.4971 0,-0.215 -1.2686,-1.1614 -1.5569,-1.1614 z"
       id="path5588" />
  </g>
</svg>
