<?xml version="1.0" encoding="UTF-8" standalone="no"?>
<!-- Created with Inkscape (http://www.inkscape.org/) -->

<svg
   width="793.70081"
   height="1122.5197"
   viewBox="0 0 126.99213 179.60315"
   version="1.1"
   id="svg1"
   inkscape:version="1.4 (86a8ad7, 2024-10-11)"
   sodipodi:docname="Forme4.svg"
   xmlns:inkscape="http://www.inkscape.org/namespaces/inkscape"
   xmlns:sodipodi="http://sodipodi.sourceforge.net/DTD/sodipodi-0.dtd"
   xmlns="http://www.w3.org/2000/svg"
   xmlns:svg="http://www.w3.org/2000/svg">
  <sodipodi:namedview
     id="namedview1"
     pagecolor="#ffffff"
     bordercolor="#999999"
     borderopacity="1"
     inkscape:showpageshadow="2"
     inkscape:pageopacity="0"
     inkscape:pagecheckerboard="0"
     inkscape:deskcolor="#d1d1d1"
     inkscape:document-units="mm"
     inkscape:zoom="0.17438448"
     inkscape:cx="940.45069"
     inkscape:cy="1878.0342"
     inkscape:window-width="1920"
     inkscape:window-height="1001"
     inkscape:window-x="-9"
     inkscape:window-y="-9"
     inkscape:window-maximized="1"
     inkscape:current-layer="layer1" />
  <defs
     id="defs1" />
  <g
     inkscape:label="Calque 1"
     inkscape:groupmode="layer"
     id="layer1">
    <path
       style="fill:#da1919;fill-opacity:1;stroke:#000000;stroke-width:0.627681;stroke-dasharray:none"
       d="m 188.52954,496.15755 c -0.71248,0.27547 0.28233,1.03093 2.14194,1.62579 0.68234,0.21879 0.83945,0.33481 0.83945,0.62732 0,0.32309 -0.45903,1.60206 -1.04437,2.91036 -0.375,0.83807 -0.34897,1.09696 0.12809,1.33203 0.57726,0.28417 3.70214,1.4146 7.82887,2.83078 3.79693,1.30294 3.57283,1.06967 2.99324,3.08491 -0.768,2.67029 -0.76973,2.61709 0.002,2.78116 0.044,0.008 0.35552,0.13264 0.69165,0.27359 1.13533,0.47806 1.00533,0.72886 2.74494,-5.31225 0.40797,-1.41683 0.77455,-2.67521 0.81382,-2.79704 0.0542,-0.1674 0.25577,-0.19574 0.82763,-0.11563 1.16176,0.16325 4.542,1.17265 4.67997,1.39759 0.14557,0.23694 0.14673,0.23316 -0.42166,2.43772 -0.24497,0.95011 -0.39751,1.77531 -0.33895,1.83438 0.13581,0.13679 6.04765,1.66453 8.98164,2.3206 1.23054,0.27511 2.36455,0.53614 2.51832,0.57986 0.36505,0.10392 0.35664,0.52994 -0.051,2.69591 -0.40395,2.14516 -0.45356,2.06059 1.32222,2.2968 0.68718,0.0911 0.76767,0.0669 0.91431,-0.28416 0.0884,-0.21048 0.48971,-2.01366 0.89264,-4.00596 0.40293,-1.99237 0.74834,-3.69522 0.76852,-3.78382 0.0996,-0.43809 0.32201,-0.57556 0.80201,-0.49432 2.23329,0.37751 4.76969,0.87253 4.84156,0.94494 0.0485,0.0499 -0.0721,1.0443 -0.26799,2.21147 -0.28291,1.68538 -0.31468,2.14693 -0.15373,2.24722 0.28429,0.1776 8.22362,1.4341 10.70781,1.69528 0.57127,0.0623 1.0927,0.14171 1.15864,0.18252 0.15077,0.0926 0.14075,1.7231 -0.0193,3.1723 -0.0891,0.80444 -0.0674,1.15912 0.0771,1.30434 0.45062,0.45368 2.70656,0.4193 2.58533,-0.0378 -0.027,-0.10695 0.2784,-2.99452 0.7311,-6.87661 l 0.18701,-1.60999 0.87697,0.008 c 1.61037,0.0113 4.54713,0.2101 4.82564,0.31742 0.22558,0.0881 0.26259,0.25734 0.20283,0.93696 -0.20668,2.35888 -0.21362,3.30713 -0.0232,3.46615 0.10797,0.0907 0.94872,0.21237 1.86803,0.26981 0.91942,0.0563 1.99667,0.13074 2.39229,0.16134 0.39543,0.0302 2.3358,0.1043 4.31346,0.16325 1.97766,0.0563 3.65786,0.16325 3.73217,0.2324 0.0744,0.0688 0.14729,1.08875 0.16349,2.26309 0.0347,2.4348 -0.0232,2.34743 1.4819,2.3206 0.57773,-0.008 0.92902,-0.0937 1.02464,-0.24637 0.17468,-0.27813 0.20244,-9.43671 0.0308,-9.5446 -0.11182,-0.0699 -1.51614,-0.14133 -6.82988,-0.34915 -1.1426,-0.0438 -2.94149,-0.1213 -3.99614,-0.17081 -2.48723,-0.11563 -11.17017,-0.83266 -12.5306,-1.0343 -0.57902,-0.0854 -2.49047,-0.34387 -4.24841,-0.57173 -4.67745,-0.60741 -13.25447,-2.15207 -17.33862,-3.12462 -6.7853,-1.61582 -8.24446,-1.97878 -9.42895,-2.34445 -0.74711,-0.23051 -2.54595,-0.77953 -3.99622,-1.21889 -2.85523,-0.86516 -11.26338,-3.67285 -13.43896,-4.48843 -0.73909,-0.27699 -2.55403,-0.97717 -4.03365,-1.55442 -1.47961,-0.5774 -2.79722,-1.00746 -2.9282,-0.95678 z"
       id="path6685" />
  </g>
</svg>
