<?xml version="1.0" encoding="UTF-8" standalone="no"?>
<!-- Created with Inkscape (http://www.inkscape.org/) -->

<svg
   width="793.70081"
   height="1122.5197"
   viewBox="0 0 126.99213 179.60315"
   version="1.1"
   id="svg1"
   inkscape:version="1.4 (86a8ad7, 2024-10-11)"
   sodipodi:docname="Forme1.svg"
   xmlns:inkscape="http://www.inkscape.org/namespaces/inkscape"
   xmlns:sodipodi="http://sodipodi.sourceforge.net/DTD/sodipodi-0.dtd"
   xmlns="http://www.w3.org/2000/svg"
   xmlns:svg="http://www.w3.org/2000/svg">
  <sodipodi:namedview
     id="namedview1"
     pagecolor="#ffffff"
     bordercolor="#999999"
     borderopacity="1"
     inkscape:showpageshadow="2"
     inkscape:pageopacity="0"
     inkscape:pagecheckerboard="0"
     inkscape:deskcolor="#d1d1d1"
     inkscape:document-units="mm"
     inkscape:zoom="0.24661688"
     inkscape:cx="831.24885"
     inkscape:cy="1279.3123"
     inkscape:window-width="1920"
     inkscape:window-height="1001"
     inkscape:window-x="-9"
     inkscape:window-y="-9"
     inkscape:window-maximized="1"
     inkscape:current-layer="layer1" />
  <defs
     id="defs1" />
  <g
     inkscape:label="Calque 1"
     inkscape:groupmode="layer"
     id="layer1">
    <path
       style="fill:#da1919;fill-opacity:1;stroke:#000000;stroke-width:0.627784;stroke-dasharray:none"
       d="m 474.49978,252.01869 c -0.66003,0.004 -0.68903,0.20292 -0.2919,2.01119 1.13625,5.17225 2.11362,9.86779 2.2192,10.66803 0.0386,0.30987 0.10526,0.78071 0.14421,1.04632 0.1153,0.807 0.72528,5.27533 0.8022,5.87703 0.16465,1.28994 0.26529,2.03678 0.32699,2.41632 0.0636,0.38246 0.13457,1.0657 0.31696,3.0597 0.0447,0.48739 0.11298,1.13946 0.15385,1.44933 0.20013,1.54602 0.27725,2.24197 0.32892,2.97823 0.0308,0.44302 0.10219,1.27686 0.15732,1.85241 0.13381,1.3745 0.27724,3.49698 0.48906,7.24507 0.0447,0.84134 0.12224,1.65776 0.16774,1.81273 0.0949,0.32611 0.58664,0.37373 0.81981,0.0794 0.088,-0.11072 0.49989,-1.25131 0.91649,-2.53546 0.79781,-2.46194 1.3575,-3.6976 2.3335,-5.15233 1.00548,-1.49898 1.63806,-2.01172 5.18127,-4.19724 2.39319,-1.47615 2.78361,-1.8438 2.70213,-2.54945 -0.0637,-0.55492 -0.15733,-0.68876 -1.8506,-2.66054 -1.60352,-1.86719 -2.36222,-3.2251 -2.57596,-4.61619 -0.16465,-1.07258 -0.13727,-1.35383 0.36864,-3.86176 0.29961,-1.48719 0.58341,-2.67827 0.6306,-2.64872 0.1608,0.10052 0.008,-2.64244 -0.16195,-2.89475 -0.0575,-0.0881 -0.15616,-0.36427 -0.21477,-0.61179 -0.069,-0.29173 -0.17545,-0.40865 -0.30155,-0.33556 -0.10719,0.0624 -0.14421,0.0563 -0.0809,-0.0113 0.20359,-0.22634 -0.52481,-1.05628 -1.69494,-1.92794 -1.19894,-0.89324 -2.25349,-1.4819 -3.65004,-2.03508 -2.59986,-1.02977 -4.57616,-2.22236 -6.11744,-3.69299 -0.43932,-0.41926 -0.94365,-0.76181 -1.11951,-0.76045 z"
       id="path2438" />
  </g>
</svg>
