<?xml version="1.0" encoding="UTF-8" standalone="no"?>
<!-- Created with Inkscape (http://www.inkscape.org/) -->

<svg
   width="793.70081"
   height="1122.5197"
   viewBox="0 0 126.99213 179.60315"
   version="1.1"
   id="svg1"
   inkscape:version="1.4 (86a8ad7, 2024-10-11)"
   sodipodi:docname="Forme1bis.svg"
   xmlns:inkscape="http://www.inkscape.org/namespaces/inkscape"
   xmlns:sodipodi="http://sodipodi.sourceforge.net/DTD/sodipodi-0.dtd"
   xmlns="http://www.w3.org/2000/svg"
   xmlns:svg="http://www.w3.org/2000/svg">
  <sodipodi:namedview
     id="namedview1"
     pagecolor="#ffffff"
     bordercolor="#999999"
     borderopacity="1"
     inkscape:showpageshadow="2"
     inkscape:pageopacity="0"
     inkscape:pagecheckerboard="0"
     inkscape:deskcolor="#d1d1d1"
     inkscape:document-units="mm"
     inkscape:zoom="0.17438447"
     inkscape:cx="-160.56476"
     inkscape:cy="1333.2609"
     inkscape:window-width="1920"
     inkscape:window-height="1001"
     inkscape:window-x="-9"
     inkscape:window-y="-9"
     inkscape:window-maximized="1"
     inkscape:current-layer="layer1" />
  <defs
     id="defs1" />
  <g
     inkscape:label="Calque 1"
     inkscape:groupmode="layer"
     id="layer1">
    <path
       style="fill:#da1919;fill-opacity:1;stroke:#000000;stroke-width:0.627804;stroke-dasharray:none;stroke-opacity:1"
       d="m 57.257833,306.40899 c -0.07442,10e-4 -0.159291,0.0113 -0.256192,0.0265 -0.316383,0.0378 -0.479442,0.16929 -0.559723,0.4549 -0.06247,0.22105 -0.237915,0.87384 -0.390237,1.44947 -0.152312,0.57551 -0.324752,1.15303 -0.364584,1.28869 -0.07199,0.24448 -0.160293,0.39117 -0.236487,0.5774 -0.06185,0.14246 -0.06312,0.13755 -0.118225,0.31553 -0.03201,0.1024 -0.10924,0.45618 -0.242426,0.77646 -0.25785,0.61988 -0.167812,0.4874 -0.346884,0.80202 -0.04593,0.0805 -0.22546,0.36617 -0.333042,0.58802 -0.335316,0.69046 -0.737942,1.3448 -1.235758,2.00542 -0.497807,0.66072 -1.791358,2.01924 -1.921648,2.01924 -0.0408,0 -0.237067,0.14321 -0.435569,0.31553 -0.198506,0.17307 -1.110149,0.79169 -2.0261,1.37605 -2.079031,1.32647 -2.840958,2.07256 -2.80067,2.73808 0.01581,0.26566 0.03778,0.52617 0.04908,0.57991 0.01157,0.0563 0.454005,0.55926 0.983489,1.12578 1.637759,1.75284 2.893874,3.65947 3.119942,4.73552 0.249251,1.1864 0.163109,2.82621 -0.260163,4.94997 -0.414726,2.08126 -0.508777,3.95895 -0.252297,5.05329 0.309135,1.31869 1.495266,2.72705 3.222439,3.82609 0.775773,0.49366 0.982558,0.59678 2.152229,1.07824 1.104724,0.45429 3.804399,1.87664 4.70063,2.47588 0.504629,0.33744 1.253056,0.99469 1.661482,1.46142 0.722334,0.82528 0.958389,0.5899 1.50971,0.5899 0.108006,0 -0.354442,-2.66742 -0.973624,-5.84158 -1.691204,-8.66991 -2.310718,-12.59579 -2.983958,-18.90836 -0.338131,-3.17073 -0.831901,-9.27362 -0.949983,-11.75447 -0.174907,-3.67528 -0.190717,-4.11188 -0.711506,-4.10214 z"
       id="path3467"
       sodipodi:nodetypes="ccssscsssssscssssssssssssssscc" />
  </g>
</svg>
