<?xml version="1.0" encoding="UTF-8" standalone="no"?>
<!-- Created with Inkscape (http://www.inkscape.org/) -->

<svg
   width="793.70081"
   height="1122.5197"
   viewBox="0 0 126.99213 179.60315"
   version="1.1"
   id="svg1"
   inkscape:version="1.4 (86a8ad7, 2024-10-11)"
   sodipodi:docname="Forme4bis.svg"
   xmlns:inkscape="http://www.inkscape.org/namespaces/inkscape"
   xmlns:sodipodi="http://sodipodi.sourceforge.net/DTD/sodipodi-0.dtd"
   xmlns="http://www.w3.org/2000/svg"
   xmlns:svg="http://www.w3.org/2000/svg">
  <sodipodi:namedview
     id="namedview1"
     pagecolor="#ffffff"
     bordercolor="#999999"
     borderopacity="1"
     inkscape:showpageshadow="2"
     inkscape:pageopacity="0"
     inkscape:pagecheckerboard="0"
     inkscape:deskcolor="#d1d1d1"
     inkscape:document-units="mm"
     inkscape:zoom="0.12330844"
     inkscape:cx="-1184.0227"
     inkscape:cy="377.10313"
     inkscape:window-width="1920"
     inkscape:window-height="1001"
     inkscape:window-x="-9"
     inkscape:window-y="-9"
     inkscape:window-maximized="1"
     inkscape:current-layer="layer1" />
  <defs
     id="defs1" />
  <g
     inkscape:label="Calque 1"
     inkscape:groupmode="layer"
     id="layer1">
    <path
       style="fill:#da1919;fill-opacity:1;stroke:#000000;stroke-width:0.62783;stroke-dasharray:none;stroke-opacity:1"
       d="m 270.69463,76.500247 -1.10174,0.04988 -0.0308,3.78459 c -0.0154,2.08133 -0.0555,4.309995 -0.0891,4.95209 -0.0386,0.748317 -4.3e-4,1.173546 0.10835,1.183409 0.0937,0.0076 1.42784,0.03779 2.96634,0.06575 4.93453,0.08805 7.8986,0.21048 11.51053,0.480551 0.30771,0.02645 1.2422,0.08918 2.07742,0.146996 0.83516,0.0563 1.84153,0.136793 2.23708,0.176849 0.39567,0.03779 1.18672,0.118654 1.75818,0.174958 0.57142,0.05631 1.21903,0.123568 1.43878,0.148885 0.21979,0.02645 0.83246,0.0888 1.36001,0.143217 0.52746,0.05631 1.21649,0.136793 1.53341,0.182517 0.31658,0.04384 0.88607,0.115631 1.26333,0.154175 0.37712,0.03779 0.98139,0.117899 1.34227,0.174959 0.36053,0.05631 0.83474,0.123567 1.05446,0.148885 0.21979,0.02645 0.6153,0.08616 0.87908,0.134903 0.26376,0.04988 0.80471,0.132636 1.20034,0.186673 0.77852,0.106941 1.29649,0.193098 1.91187,0.317421 0.21631,0.04383 0.68351,0.121299 1.03868,0.173068 0.35476,0.04988 0.96843,0.168158 1.36394,0.258094 0.94348,0.214258 1.06946,0.239198 1.91774,0.375612 0.39566,0.06311 1.29904,0.249402 2.00654,0.413025 1.34346,0.309862 1.86907,0.418692 2.76918,0.571771 0.29691,0.04988 0.67502,0.1213 0.83971,0.15871 0.53313,0.119788 0.84901,0.18365 1.41904,0.287945 0.30771,0.05631 0.73808,0.137927 0.9579,0.182517 0.85831,0.174958 1.21788,0.245622 1.67925,0.328 0.26413,0.04988 0.6001,0.122433 0.74702,0.166645 0.14652,0.04384 0.41629,0.114876 0.5991,0.154931 0.18278,0.03779 0.47661,0.11072 0.6524,0.154176 0.40384,0.101272 0.86551,0.207456 2.04984,0.468647 0.20475,0.04384 0.50444,0.12319 0.66623,0.17496 0.16157,0.04988 0.4264,0.126212 0.58729,0.163244 0.6293,0.14624 2.67532,0.729763 5.88739,1.679907 1.84622,0.546113 3.51331,1.025833 3.70546,1.066229 0.19203,0.03779 0.66141,0.206701 1.04069,0.36919 0.37943,0.162488 0.87288,0.339336 1.09776,0.394922 0.2248,0.05631 0.69222,0.226351 1.03876,0.37928 0.34666,0.151907 0.6851,0.289457 0.751,0.306083 0.0659,0.01134 0.13765,0.04383 0.15925,0.06235 0.0232,0.01889 0.14576,0.0563 0.27801,0.08124 0.57975,0.117522 2.48935,0.764377 4.55693,1.542774 1.23075,0.463661 2.3282,0.844791 2.43806,0.847851 0.1099,0.0024 0.19897,0.05631 0.19897,0.113743 0,0.05631 0.0895,0.108071 0.19897,0.109211 0.22596,0.002 4.44996,1.66256 4.63976,1.82278 0.23251,0.19612 0.60036,-0.18819 1.00127,-0.3537 0.002,-0.1213 -0.0987,-0.14888 -0.34665,-0.11563 -0.0559,0.008 -0.14691,-0.0499 -0.2009,-0.1213 -0.054,-0.0737 -0.33084,-0.22446 -0.61688,-0.33556 -0.28572,-0.11072 -0.75307,-0.29248 -1.03872,-0.40304 -0.88591,-0.34312 -0.88591,-0.32687 -0.11799,-2.374871 0.54389,-1.451289 0.66092,-1.955079 0.51045,-2.200098 -0.0617,-0.101272 -0.50779,-0.329511 -0.99133,-0.506133 -0.48354,-0.177604 -1.959,-0.735507 -3.27782,-1.241036 -1.3187,-0.505529 -3.39975,-1.272892 -4.62587,-1.703676 -1.22609,-0.43052 -2.28,-0.874001 -2.34158,-0.986873 -0.0617,-0.112987 0.0971,-0.848532 0.35281,-1.634184 0.25527,-0.785652 0.50823,-1.704356 0.56167,-2.041236 l 0.0968,-0.611751 -1.07419,-0.335559 c -0.5909,-0.18365 -1.16035,-0.333669 -1.26539,-0.333669 -0.10488,0 -0.35206,0.560511 -0.5499,1.246931 -1.13902,3.954145 -2.09349,7.008669 -2.23701,7.160275 -0.0602,0.06311 -0.68313,-0.0563 -1.38569,-0.264138 -0.70241,-0.208213 -1.8735,-0.540522 -2.60167,-0.740685 -0.72817,-0.199899 -1.35831,-0.422395 -1.40134,-0.492379 -0.0428,-0.06991 0.0675,-0.65702 0.2464,-1.304633 0.58819,-2.129472 0.71227,-2.88391 0.49669,-3.018059 -0.27802,-0.173825 -4.01266,-1.161832 -8.00814,-2.118664 -1.89016,-0.453041 -3.48913,-0.906876 -3.55368,-1.008677 -0.1604,-0.253559 -0.16078,-0.246379 0.1851,-2.005565 0.51701,-2.627065 0.52726,-2.424673 -0.12995,-2.55746 -0.7599,-0.153797 -0.81045,-0.164755 -0.85734,-0.204433 -0.14961,-0.128102 -1.11037,-0.0786 -1.22007,0.06235 -0.11838,0.151908 -0.48116,1.838919 -0.59124,2.750065 -0.0193,0.177605 -0.0548,0.321955 -0.0729,0.321955 -0.0193,0 -0.0598,0.145107 -0.091,0.321954 -0.1003,0.572377 -0.20976,1.105454 -0.45724,2.220013 -0.13303,0.60049 -0.27686,1.290199 -0.32121,1.530833 -0.24061,1.309811 -0.30887,1.403978 -0.9756,1.383989 -1.20419,-0.03023 -5.01787,-0.923957 -5.10089,-1.187416 -0.0436,-0.136415 0.0555,-1.079151 0.21902,-2.096785 0.1635,-1.017633 0.26838,-1.92825 0.23252,-2.023362 -0.0347,-0.0956 -0.76256,-0.303061 -1.61624,-0.462414 -0.85375,-0.159842 -1.69659,-0.324977 -1.87251,-0.365411 -0.31927,-0.07331 -1.44514,-0.248645 -5.51479,-0.861756 -1.18687,-0.178738 -2.36695,-0.366922 -2.62141,-0.416802 l -0.46117,-0.09107 0.1045,-1.711574 c 0.0583,-0.942321 0.13958,-1.910565 0.18354,-2.150519 0.10183,-0.555523 -0.19704,-0.725607 -1.36197,-0.774278 -1.20095,-0.04988 -1.26099,-0.03023 -1.24565,0.283788 0.0193,0.368812 -0.20628,2.668935 -0.27029,2.775913 -0.027,0.04384 -0.0991,0.770839 -0.15965,1.612304 -0.0613,0.841351 -0.14035,1.747661 -0.17545,2.013349 -0.0347,0.26565 -0.11027,0.845924 -0.16541,1.288763 -0.11222,0.890665 -0.26915,1.067475 -0.86135,0.972892 -0.2198,-0.03023 -0.93909,-0.10883 -1.5985,-0.163245 -2.95365,-0.241087 -3.11934,-0.266784 -3.31125,-0.520531 -0.10682,-0.141328 -0.16928,-0.300037 -0.13804,-0.353697 0.0308,-0.0563 0.10681,-0.948933 0.16927,-1.989579 0.0917,-1.528755 0.0729,-1.895451 -0.10061,-1.910112 -1.12922,-0.09561 -3.44378,-0.242978 -6.28942,-0.399308 -0.96707,-0.05631 -2.11678,-0.120543 -2.55636,-0.150774 -0.43966,-0.03023 -1.42984,-0.06878 -2.19965,-0.08314 -0.76977,-0.01134 -1.43504,-0.08427 -1.47823,-0.154176 -0.0432,-0.06991 -0.11799,-1.058104 -0.16735,-2.196092 -0.0498,-1.13795 -0.14691,-2.12728 -0.2167,-2.198057 -0.0694,-0.07066 -0.62317,-0.108074 -1.22987,-0.08125 z"
       id="path5" />
  </g>
</svg>
