<?xml version="1.0" encoding="UTF-8" standalone="no"?>
<!-- Created with Inkscape (http://www.inkscape.org/) -->

<svg
   width="793.70081"
   height="1122.5197"
   viewBox="0 0 126.99213 179.60315"
   version="1.1"
   id="svg1"
   inkscape:version="1.4 (86a8ad7, 2024-10-11)"
   sodipodi:docname="Forme3.svg"
   xmlns:inkscape="http://www.inkscape.org/namespaces/inkscape"
   xmlns:sodipodi="http://sodipodi.sourceforge.net/DTD/sodipodi-0.dtd"
   xmlns="http://www.w3.org/2000/svg"
   xmlns:svg="http://www.w3.org/2000/svg">
  <sodipodi:namedview
     id="namedview1"
     pagecolor="#ffffff"
     bordercolor="#999999"
     borderopacity="1"
     inkscape:showpageshadow="2"
     inkscape:pageopacity="0"
     inkscape:pagecheckerboard="0"
     inkscape:deskcolor="#d1d1d1"
     inkscape:document-units="mm"
     inkscape:zoom="0.24661689"
     inkscape:cx="340.60927"
     inkscape:cy="1478.001"
     inkscape:window-width="1920"
     inkscape:window-height="1001"
     inkscape:window-x="-9"
     inkscape:window-y="-9"
     inkscape:window-maximized="1"
     inkscape:current-layer="layer1" />
  <defs
     id="defs1" />
  <g
     inkscape:label="Calque 1"
     inkscape:groupmode="layer"
     id="layer1">
    <path
       style="fill:#da1919;fill-opacity:1;stroke:#000000;stroke-width:0.627761;stroke-dasharray:none"
       d="m 97.121983,380.23294 c -0.38263,0.0499 -0.612076,0.85598 -0.67794,2.38642 -0.200473,4.66117 1.91553,10.46281 6.998197,19.18894 1.08325,1.85983 2.15165,3.70732 2.37281,4.10583 0.79942,1.44041 2.81055,4.47022 4.32781,6.52003 0.85218,1.1513 3.16331,4.26046 5.13585,6.90725 1.97255,2.64668 4.00315,5.39852 4.51306,6.11702 1.0748,1.51451 2.393,4.07571 2.76893,5.37845 0.35444,1.2283 0.23491,3.25439 -0.24235,4.10976 -0.19979,0.35823 -0.29025,0.70304 -0.2188,0.8299 0.10381,0.18441 2.39745,2.75211 3.05077,3.41491 0.11618,0.11828 0.33138,0.21313 0.47887,0.21237 0.14753,-5.3e-4 1.41958,-0.66053 2.82609,-1.46724 1.40649,-0.80674 2.95504,-1.69381 3.44097,-1.97151 2.27278,-1.29859 2.55264,-1.4873 2.55018,-1.71332 -0.002,-0.2373 -0.50725,-0.82605 -2.76894,-3.22834 -0.62936,-0.66844 -1.64907,-1.78621 -2.26441,-2.48571 -0.61533,-0.69957 -1.93585,-2.18222 -2.93448,-3.29375 -0.99865,-1.1118 -2.22459,-2.52901 -2.72559,-3.14899 -3.08921,-3.82239 -4.43325,-5.52947 -5.69946,-7.24466 -0.78451,-1.06276 -1.50805,-2.01909 -1.60816,-2.12634 -0.19053,-0.20443 -3.13101,-4.37053 -3.99475,-5.66043 -3.45793,-5.16397 -5.65274,-8.78327 -8.21614,-13.54842 -0.64314,-1.19554 -1.4818,-2.75411 -1.86435,-3.46256 -0.38259,-0.70838 -1.62485,-3.18006 -2.761057,-5.49355 -1.136201,-2.31354 -2.177764,-4.24988 -2.313687,-4.30244 -0.06119,-0.0265 -0.118726,-0.0302 -0.173442,-0.0265 z"
       id="path5091" />
  </g>
</svg>
